<svg xmlns="http://www.w3.org/2000/svg" fill="none" viewBox="0 0 64 64"><defs/><path fill="#e40000" d="M19.038 64c2.084 0 4.546-.497 7.328-1.475 4.16-1.464 7.453-3.494 10.635-5.456l.862-.53a79.64 79.64 0 0010.029-7.358c7.485-6.383 11.972-12.639 14.547-20.289 1.042-3.096 2.518-9.14.708-14.81-1.306-4.104-3.99-7.661-7.622-10.097C55.1 3.638 50.444 0 41.66 0c-8.028 0-16.833 3.022-26.167 8.988l-.298.19-.045.026c-.269.161-.536.323-.835.513-.229.17-.47.327-.719.467a54.634 54.634 0 00-5.425 4.087C4.23 17.987-.267 24.206.012 29.485c.06 2.136 1.106 4.13 2.846 5.429a9.51 9.51 0 005.926 1.84c4.78 0 10.023-2.54 13.608-4.69.221-.15.445-.297.677-.444.624-.402 1.246-.809 1.875-1.218l.612-.4c5.095-3.331 10.364-6.776 16.306-8.785 1.32-.48 2.713-.74 4.121-.771a7.92 7.92 0 011.782.193c1.717.334 3.17 1.441 3.92 2.985 1.375 2.732 1.048 7.05-.826 11-2.558 5.382-6.95 10.685-13.048 15.767a51.62 51.62 0 01-8.53 5.936l-.23.124a31.747 31.747 0 01-3.952 1.88l-.193.072c-.424.155-.779.285-1.107.395-5.964 1.558-2.335-3.563-2.335-3.563a44.692 44.692 0 014.073-4.024 76.5 76.5 0 002.478-2.318l.186-.182c1.038-1.014 2.466-2.405 2.38-4.404-.12-2.645-2.875-4.298-5.463-4.368h-.192c-2.491 0-4.852 1.427-6.39 2.623a20.408 20.408 0 00-4.282 4.712c-1.586 2.455-4.926 8.71-1.673 13.712C13.88 62.989 16.053 64 19.038 64z"/></svg>